<svg id="Layer_1" data-name="Layer 1" xmlns="http://www.w3.org/2000/svg" viewBox="0 0 232.8 299.7"><defs><style>.cls-1{fill:#412020;}.cls-2{fill:#fae2d0;}.cls-3{fill:#f5cfb2;}.cls-4{fill:#e94f3d;}.cls-5{fill:none;}.cls-6{fill:#491722;}.cls-7{fill:#67baaf;}</style></defs><title>Tracy_Logo_RGB</title><polygon class="cls-1" points="32.9 299.7 22.6 281.7 43.2 281.7 32.9 299.7"/><polygon class="cls-1" points="73.6 299.7 63.3 281.7 83.9 281.7 73.6 299.7"/><path class="cls-2" d="M88.6,19c-42,.4-76.7,34.1-77.1,76.1q0,0.5,0,.9v86.4a77.8,77.8,0,0,0,77.8,77.8h53.4a77.8,77.8,0,0,0,77.8-77.8V96q0-2.4-.1-4.8c-1.9-41.2-37-73.1-78.3-72.7Z"/><path class="cls-3" d="M84.5,281.7c75.1,0,135.9-9.8,135.9-84.9v-47H11.5l1.5,131.9H84.5Z"/><path class="cls-4" d="M58.8,281.7c55.6,0,100.7,6,100.7-49.6V149.9H11.5l1.2,131.9H58.8Z"/><polygon class="cls-4" points="116 144.4 105.7 126.4 126.3 126.4 116 144.4"/><polygon class="cls-5" points="161.4 0 71.3 0 116.4 24.3 161.4 0"/><polygon class="cls-4" points="161.4 0 116.4 24.3 71.3 0 0.1 0 0 0.2 116.4 63 232.8 0.2 232.7 0 161.4 0"/><path class="cls-6" d="M79.6,105.8L73,99.2a18.1,18.1,0,0,0,1.4-7.1,2,2,0,0,0-4,0,14.2,14.2,0,0,1-28.4,0,2,2,0,1,0-4,0,18.1,18.1,0,0,0,1.6,7.4l-6.3,6.3a2,2,0,1,0,2.8,2.8l5.6-5.6a18.2,18.2,0,0,0,12.7,7.1v8.6a2,2,0,0,0,4,0v-8.7A18.2,18.2,0,0,0,71,102.8l5.8,5.8A2,2,0,0,0,79.6,105.8Z"/><path class="cls-6" d="M199.1,105.8l-6.6-6.6a18.1,18.1,0,0,0,1.4-7.1,2,2,0,0,0-4,0,14.2,14.2,0,1,1-28.4,0,2,2,0,0,0-4,0,18.1,18.1,0,0,0,1.6,7.4l-6.3,6.3a2,2,0,1,0,2.8,2.8l5.6-5.6a18.2,18.2,0,0,0,12.7,7.1v8.6a2,2,0,0,0,4,0v-8.7a18.2,18.2,0,0,0,12.5-7.3l5.8,5.8A2,2,0,0,0,199.1,105.8Z"/><path class="cls-7" d="M173.5,50.7a46.8,46.8,0,0,0-40.6,23.4,47,47,0,0,0-33.7.3A46.8,46.8,0,0,0,58.5,50.7H11.7V97.5A46.8,46.8,0,1,0,104.4,88a32.4,32.4,0,0,1,23.2-.3,46.9,46.9,0,1,0,92.7,9.8V50.7H173.5ZM58.5,129.8A32.3,32.3,0,0,1,26.3,97.5V65.2H58.5A32.3,32.3,0,0,1,58.5,129.8ZM205.7,97.5a32.3,32.3,0,1,1-32.3-32.3h32.3V97.5Z"/></svg>